<?xml version="1.0" encoding="UTF-8" standalone="no"?>
<svg
   height="128px"
   viewBox="0 0 128 128"
   width="128px"
   version="1.1"
   id="svg14"
   sodipodi:docname="bobcat.svg"
   inkscape:version="1.4 (e7c3feb100, 2024-10-09)"
   inkscape:export-filename="Bobcat Icons/bobcat32x32.png"
   inkscape:export-xdpi="24"
   inkscape:export-ydpi="24"
   xmlns:inkscape="http://www.inkscape.org/namespaces/inkscape"
   xmlns:sodipodi="http://sodipodi.sourceforge.net/DTD/sodipodi-0.dtd"
   xmlns="http://www.w3.org/2000/svg"
   xmlns:svg="http://www.w3.org/2000/svg">
  <defs
     id="defs14">
    <rect
       x="34.345342"
       y="51.518012"
       width="48.337888"
       height="12.561491"
       id="rect98" />
    <filter
       inkscape:label="Dark and Glow"
       inkscape:menu="Shadows and Glows"
       inkscape:menu-tooltip="Darkens the edge with an inner blur and adds a flexible glow"
       style="color-interpolation-filters:sRGB;"
       id="filter124"
       x="-0.09375"
       y="-0.09375"
       width="1.1875"
       height="1.1875">
      <feTurbulence
         type="fractalNoise"
         numOctaves="3"
         baseFrequency="1"
         seed="0"
         result="result0"
         id="feTurbulence123" />
      <feColorMatrix
         result="result4"
         values="0"
         type="saturate"
         id="feColorMatrix123" />
      <feComposite
         in="SourceGraphic"
         in2="result4"
         operator="arithmetic"
         k1="1.25"
         k2="0.5"
         k3="0.5"
         result="result2"
         id="feComposite123" />
      <feBlend
         result="result5"
         mode="normal"
         in="result2"
         in2="SourceGraphic"
         id="feBlend123" />
      <feComposite
         in="result5"
         in2="SourceGraphic"
         operator="in"
         result="fbSourceGraphic"
         id="feComposite124" />
      <feColorMatrix
         result="fbSourceGraphicAlpha"
         in="fbSourceGraphic"
         values="0 0 0 -1 0 0 0 0 -1 0 0 0 0 -1 0 0 0 0 1 0"
         id="feColorMatrix125" />
      <feGaussianBlur
         id="feGaussianBlur125"
         stdDeviation="5"
         result="result6"
         in="fbSourceGraphic" />
      <feComposite
         id="feComposite125"
         result="result8"
         in="fbSourceGraphic"
         operator="atop"
         in2="result6" />
      <feComposite
         id="feComposite126"
         result="result9"
         operator="over"
         in2="fbSourceGraphicAlpha"
         in="result8" />
      <feColorMatrix
         id="feColorMatrix126"
         values="1 0 0 0 0 0 1 0 0 0 0 0 1 0 0 0 0 0 1 0 "
         result="result10" />
      <feBlend
         id="feBlend126"
         in="result10"
         mode="normal"
         in2="result6" />
    </filter>
  </defs>
  <sodipodi:namedview
     id="namedview14"
     pagecolor="#ffffff"
     bordercolor="#000000"
     borderopacity="0.25"
     inkscape:showpageshadow="2"
     inkscape:pageopacity="0.0"
     inkscape:pagecheckerboard="0"
     inkscape:deskcolor="#d1d1d1"
     inkscape:zoom="2.8284271"
     inkscape:cx="-36.592776"
     inkscape:cy="80.433397"
     inkscape:window-width="1920"
     inkscape:window-height="1012"
     inkscape:window-x="0"
     inkscape:window-y="0"
     inkscape:window-maximized="1"
     inkscape:current-layer="layer1" />
  <linearGradient
     id="a"
     gradientUnits="userSpaceOnUse"
     x1="11.999989"
     x2="115.999989"
     y1="64"
     y2="64">
    <stop
       offset="0"
       stop-color="#3d3846"
       id="stop1" />
    <stop
       offset="0.05"
       stop-color="#77767b"
       id="stop2" />
    <stop
       offset="0.1"
       stop-color="#5e5c64"
       id="stop3" />
    <stop
       offset="0.899999"
       stop-color="#504e56"
       id="stop4" />
    <stop
       offset="0.95"
       stop-color="#77767b"
       id="stop5" />
    <stop
       offset="1"
       stop-color="#3d3846"
       id="stop6" />
  </linearGradient>
  <linearGradient
     id="b"
     gradientUnits="userSpaceOnUse"
     x1="12"
     x2="112.041023"
     y1="60"
     y2="80.988281">
    <stop
       offset="0"
       stop-color="#77767b"
       id="stop7" />
    <stop
       offset="0.384443"
       stop-color="#9a9996"
       id="stop8" />
    <stop
       offset="0.720567"
       stop-color="#77767b"
       id="stop9" />
    <stop
       offset="1"
       stop-color="#68666f"
       id="stop10" />
  </linearGradient>
  <g
     inkscape:groupmode="layer"
     id="layer1"
     inkscape:label="Layer 1">
    <circle
       style="fill:#000000;stroke-width:1.07809;filter:url(#filter124)"
       id="path99"
       cx="65.5"
       cy="65.25"
       r="64"
       transform="matrix(0.84206913,0,0,0.84183655,8.8545776,9.082675)" />
    <path
       d="m 28.131209,32.321968 -0.219222,1.879944 c -0.402394,3.453847 -0.306915,44.117834 0.108224,46.141748 3.692024,17.995283 24.777955,29.88829 44.753745,25.24215 12.792911,-2.97543 23.420631,-12.251708 26.548038,-23.171883 0.787356,-2.749321 1.235316,-23.111768 0.904726,-41.140542 l -0.16417,-8.946124 -2.971063,2.178378 c -1.634159,1.197861 -5.540415,4.343467 -8.679987,6.990406 -3.139597,2.646938 -6.293493,5.300558 -7.008917,5.897114 l -1.300707,1.085065 -3.306181,-1.446361 C 68.693522,43.487197 60.188598,43.395794 51.90974,46.765133 48.165274,48.289088 48.790369,48.444036 44.61308,44.960401 42.63272,43.308922 39.093735,40.574214 36.748102,38.883543 34.402523,37.192874 31.503739,35.025288 30.3068,34.066201 Z m 5.712106,10.845461 c 0.07372,-0.07325 0.978493,0.609528 2.011234,1.516866 1.987951,1.746576 5.002556,4.104555 7.043586,5.50997 l 1.228931,0.846546 -1.556961,0.942307 c -1.930751,1.168907 -5.993174,4.66698 -7.676633,6.609729 l -1.261564,1.455779 -0.06149,-4.614062 c -0.0712,-5.343382 0.07845,-12.073487 0.272914,-12.267135 z m 60.227434,0.734923 c 0.402655,-0.502498 0.225629,12.800941 -0.19026,14.287491 l -0.378718,1.353552 -2.788429,-2.707106 c -1.533664,-1.488912 -3.406939,-3.180849 -4.162814,-3.759865 -2.084983,-1.597172 -1.84242,-1.933877 5.310999,-7.37579 1.082571,-0.82355 2.076674,-1.632843 2.209259,-1.798282 z m -30.257835,5.667403 c 7.270318,-0.392652 13.833807,2.821701 22.751699,11.142135 7.980903,7.446277 7.96752,6.796877 0.147442,7.117288 -11.310231,0.463428 -17.175875,3.998813 -20.007421,12.059768 -0.410907,1.169616 -1.093919,2.388552 -1.57557,2.811658 l -0.850273,0.746682 -1.182133,-0.736702 C 62.260519,82.18965 61.50581,81.233063 60.521559,79.445385 55.265147,69.898083 52.372205,68.07944 42.161428,67.906732 c -9.206691,-0.155689 -8.863583,0.04882 -5.494914,-3.265807 11.03768,-10.859975 17.7036,-14.561113 27.146513,-15.07117 z m -30.509089,23.32232 2.378408,0.20736 c 2.900402,0.252922 2.796213,0.199766 3.061395,1.569163 1.160187,5.991037 6.555698,9.657679 14.652248,9.956603 l 5.004141,0.184408 0.16415,1.654331 c 0.158571,1.598193 0.203089,1.663417 1.312198,1.915178 l 1.148227,0.260251 v 6.281912 6.281319 l -0.984205,-0.0362 c -0.541246,-0.0205 -1.835025,-0.15117 -2.874945,-0.29077 C 45.047284,99.248713 33.303973,86.21527 33.303973,74.39242 Z m 11.750375,0.0363 c 1.506079,0 4.220501,0.86139 5.272605,1.673105 0.90666,0.699563 3.972507,4.382847 3.972507,4.772687 0,0.261142 -3.973786,0.154524 -5.023974,-0.134612 -3.178571,-0.874752 -6.814704,-6.311251 -4.221138,-6.311251 z m 46.695181,0 h 2.664128 L 94.24491,76.312224 C 93.650212,88.255281 81.431474,99.820002 68.053168,101.1021 l -2.047123,0.19618 0.211992,-1.17614 c 0.116566,-0.646623 0.213379,-3.578037 0.215324,-6.514523 l 0.0056,-5.338994 h 1.804283 1.804306 v -1.622048 c 0,-1.869133 0.162741,-1.987418 2.741658,-1.987418 9.840572,0 14.184449,-2.941975 16.099014,-10.903596 0.196974,-0.819484 0.223674,-0.827164 2.862798,-0.827164 z m -8.937528,0.0553 0.983503,0.09511 -0.792572,1.804731 c -0.914897,2.08234 -2.745775,3.774156 -4.649175,4.29623 -1.869496,0.512809 -5.027149,0.800871 -5.027149,0.458837 0,-2.357042 6.533082,-6.940667 9.485393,-6.654974 z"
       style="fill:#f9f9f9;fill-opacity:1;stroke-width:0.314125"
       id="path1-2"
       sodipodi:nodetypes="cccsssccscccsssccscccccccsscccssscsssscccsccscsccccccccccscssscsccscccccccsscscccccssc" />
    <path
       d="m 55.236984,22.413371 c -0.244026,-0.27741 -0.538866,-0.416108 -0.88423,-0.416108 -0.345351,0 -0.64104,0.140065 -0.887651,0.420003 -0.243173,0.276107 -0.366479,0.611859 -0.366479,1.004006 0,0.392117 0.12325,0.728205 0.366479,1.00399 l 3.836602,4.356271 -3.833179,4.352396 c -0.246596,0.279999 -0.369902,0.615751 -0.373328,1.007882 0.0041,0.392134 0.126825,0.728204 0.369905,1.004006 0.246611,0.276111 0.5423,0.416111 0.884224,0.420003 0.348791,0 0.644771,-0.140063 0.891369,-0.420003 l 4.262743,-4.844015 c 0.894792,-1.012113 0.894792,-2.028101 0,-3.04441 z M 71.94688,33.141694 c -0.246613,-0.279998 -0.546018,-0.419996 -0.894791,-0.419996 v -0.0015 h -8.229781 v 0.0015 c -0.348801,0 -0.64507,0.140063 -0.89138,0.419996 -0.246613,0.280016 -0.369903,0.616075 -0.369903,1.012115 0,0.396022 0.12325,0.735988 0.369903,1.015988 0.246612,0.28 0.542301,0.419999 0.89138,0.419999 v -0.0015 h 8.229478 v 0.0015 c 0.348787,0 0.647903,-0.140064 0.89479,-0.419999 0.246612,-0.28 0.369906,-0.619966 0.369906,-1.015988 0,-0.39604 -0.123251,-0.732099 -0.369906,-1.012115 z"
       fill="#ffffff"
       id="path1-9"
       style="fill:#f9f9f9;stroke-width:0.304135" />
    <path
       style="fill:#00ffff;stroke-width:0.154406"
       d=""
       id="path126" />
    <path
       style="fill:#00ffff;stroke-width:0.154406"
       d=""
       id="path127" />
    <path
       style="fill:#00ffff;stroke-width:0.154406"
       d=""
       id="path1" />
    <path
       style="fill:#00ffff;stroke-width:0.154406"
       d="m 54.011801,35.393336 c -0.698246,-0.281021 -1.025964,-1.195116 -0.667773,-1.862604 0.08826,-0.164484 1.027535,-1.281004 2.087265,-2.481155 1.05973,-1.200152 1.926048,-2.223272 1.925153,-2.273603 -8.74e-4,-0.05033 -0.80609,-0.993561 -1.78932,-2.096069 -2.055875,-2.305282 -2.382207,-2.765513 -2.383005,-3.360794 -7.73e-4,-0.577135 0.625103,-1.188019 1.217176,-1.188019 0.401029,0 0.766667,0.349445 2.90601,2.777308 1.345992,1.527518 2.540661,2.999921 2.654823,3.272003 0.36311,0.865413 0.06733,1.371772 -2.520714,4.315181 -2.055397,2.337634 -2.808922,3.089037 -3.049463,3.040876 -0.02685,-0.0054 -0.197918,-0.06977 -0.380152,-0.143124 z"
       id="path2" />
    <path
       style="fill:#99ff55;stroke-width:0.154406"
       d="m 62.382973,35.359993 c -0.491526,-0.281132 -0.685921,-0.621655 -0.685921,-1.201531 0,-0.594746 0.201823,-0.936118 0.71441,-1.20839 0.47209,-0.250762 8.593057,-0.250762 9.065147,0 0.512588,0.272272 0.714409,0.613644 0.714409,1.20839 0,0.594745 -0.201821,0.936116 -0.714409,1.208388 -0.467827,0.248498 -8.657978,0.242322 -9.093636,-0.0069 z"
       id="path3" />
  </g>
</svg>
