<?xml version="1.0" encoding="UTF-8" standalone="no"?>
<svg
   height="128px"
   viewBox="0 0 128 128"
   width="128px"
   version="1.1"
   id="svg14"
   sodipodi:docname="bobcat3.svg"
   inkscape:version="1.4 (e7c3feb100, 2024-10-09)"
   inkscape:export-filename="Bobcat Icons/bobcat32x32.png"
   inkscape:export-xdpi="24"
   inkscape:export-ydpi="24"
   xmlns:inkscape="http://www.inkscape.org/namespaces/inkscape"
   xmlns:sodipodi="http://sodipodi.sourceforge.net/DTD/sodipodi-0.dtd"
   xmlns="http://www.w3.org/2000/svg"
   xmlns:svg="http://www.w3.org/2000/svg">
  <defs
     id="defs14">
    <rect
       x="34.345342"
       y="51.518012"
       width="48.337888"
       height="12.561491"
       id="rect98" />
    <filter
       inkscape:label="Dark and Glow"
       inkscape:menu="Shadows and Glows"
       inkscape:menu-tooltip="Darkens the edge with an inner blur and adds a flexible glow"
       style="color-interpolation-filters:sRGB;"
       id="filter124"
       x="-0.09375"
       y="-0.09375"
       width="1.1875"
       height="1.1875">
      <feTurbulence
         type="fractalNoise"
         numOctaves="3"
         baseFrequency="1"
         seed="0"
         result="result0"
         id="feTurbulence123" />
      <feColorMatrix
         result="result4"
         values="0"
         type="saturate"
         id="feColorMatrix123" />
      <feComposite
         in="SourceGraphic"
         in2="result4"
         operator="arithmetic"
         k1="1.25"
         k2="0.5"
         k3="0.5"
         result="result2"
         id="feComposite123" />
      <feBlend
         result="result5"
         mode="normal"
         in="result2"
         in2="SourceGraphic"
         id="feBlend123" />
      <feComposite
         in="result5"
         in2="SourceGraphic"
         operator="in"
         result="fbSourceGraphic"
         id="feComposite124" />
      <feColorMatrix
         result="fbSourceGraphicAlpha"
         in="fbSourceGraphic"
         values="0 0 0 -1 0 0 0 0 -1 0 0 0 0 -1 0 0 0 0 1 0"
         id="feColorMatrix125" />
      <feGaussianBlur
         id="feGaussianBlur125"
         stdDeviation="5"
         result="result6"
         in="fbSourceGraphic" />
      <feComposite
         id="feComposite125"
         result="result8"
         in="fbSourceGraphic"
         operator="atop"
         in2="result6" />
      <feComposite
         id="feComposite126"
         result="result9"
         operator="over"
         in2="fbSourceGraphicAlpha"
         in="result8" />
      <feColorMatrix
         id="feColorMatrix126"
         values="1 0 0 0 0 0 1 0 0 0 0 0 1 0 0 0 0 0 1 0 "
         result="result10" />
      <feBlend
         id="feBlend126"
         in="result10"
         mode="normal"
         in2="result6" />
    </filter>
  </defs>
  <sodipodi:namedview
     id="namedview14"
     pagecolor="#ffffff"
     bordercolor="#000000"
     borderopacity="0.25"
     inkscape:showpageshadow="2"
     inkscape:pageopacity="0.0"
     inkscape:pagecheckerboard="0"
     inkscape:deskcolor="#d1d1d1"
     inkscape:zoom="5.6568542"
     inkscape:cx="67.44031"
     inkscape:cy="65.142213"
     inkscape:window-width="1920"
     inkscape:window-height="1012"
     inkscape:window-x="0"
     inkscape:window-y="0"
     inkscape:window-maximized="1"
     inkscape:current-layer="layer1" />
  <linearGradient
     id="a"
     gradientUnits="userSpaceOnUse"
     x1="11.999989"
     x2="115.999989"
     y1="64"
     y2="64">
    <stop
       offset="0"
       stop-color="#3d3846"
       id="stop1" />
    <stop
       offset="0.05"
       stop-color="#77767b"
       id="stop2" />
    <stop
       offset="0.1"
       stop-color="#5e5c64"
       id="stop3" />
    <stop
       offset="0.899999"
       stop-color="#504e56"
       id="stop4" />
    <stop
       offset="0.95"
       stop-color="#77767b"
       id="stop5" />
    <stop
       offset="1"
       stop-color="#3d3846"
       id="stop6" />
  </linearGradient>
  <linearGradient
     id="b"
     gradientUnits="userSpaceOnUse"
     x1="12"
     x2="112.041023"
     y1="60"
     y2="80.988281">
    <stop
       offset="0"
       stop-color="#77767b"
       id="stop7" />
    <stop
       offset="0.384443"
       stop-color="#9a9996"
       id="stop8" />
    <stop
       offset="0.720567"
       stop-color="#77767b"
       id="stop9" />
    <stop
       offset="1"
       stop-color="#68666f"
       id="stop10" />
  </linearGradient>
  <g
     inkscape:groupmode="layer"
     id="layer1"
     inkscape:label="Layer 1">
    <circle
       style="fill:#000000;stroke-width:1.07809;filter:url(#filter124)"
       id="path99"
       cx="65.5"
       cy="65.25"
       r="64"
       transform="matrix(0.96278385,0,0,0.96510987,1.023444,1.392698)" />
    <path
       d="m 23.063475,28.035008 -0.250649,2.155232 c -0.460078,3.959607 -0.350912,50.578176 0.123739,52.898458 4.221294,20.630402 28.329995,34.264952 51.169412,28.938462 14.626839,-3.41114 26.778093,-14.045778 30.353833,-26.565037 0.90022,-3.151914 1.41241,-26.496113 1.03442,-47.164908 l -0.18771,-10.256138 -3.39697,2.497366 c -1.86843,1.373268 -6.334664,4.979496 -9.92431,8.014037 -3.589673,3.03454 -7.195696,6.076741 -8.013679,6.760652 l -1.487169,1.243955 -3.78014,-1.658158 c -9.263658,-4.063724 -18.987804,-4.168512 -28.453478,-0.305788 -4.281253,1.747112 -3.566548,1.924752 -8.342672,-2.069006 -2.264253,-1.893312 -6.310569,-5.028473 -8.99246,-6.966714 -2.68183,-1.938241 -5.996169,-4.423235 -7.364695,-5.522763 z m 6.530964,12.433603 c 0.0843,-0.08397 1.118765,0.698784 2.299555,1.738988 2.272934,2.002333 5.719695,4.7056 8.053318,6.316814 l 1.405103,0.97051 -1.780157,1.080292 c -2.207534,1.340075 -6.852326,5.350384 -8.777116,7.577617 l -1.442416,1.668954 -0.0703,-5.289716 c -0.08141,-6.125834 0.08969,-13.841454 0.312037,-14.063459 z m 68.861334,0.842541 c 0.460375,-0.57608 0.257969,14.675432 -0.217541,16.379662 l -0.433003,1.551757 -3.188167,-3.103518 c -1.753522,-1.706937 -3.895339,-3.646631 -4.759573,-4.310435 -2.383876,-1.831051 -2.10654,-2.217061 6.072356,-8.455855 1.237763,-0.944144 2.374377,-1.871946 2.525967,-2.061611 z m -34.595447,6.497302 c 8.312554,-0.450148 15.816952,3.234894 26.013267,12.773721 9.125007,8.536662 9.109699,7.792169 0.168578,8.159499 -12.931608,0.531289 -19.638121,4.584374 -22.875583,13.825726 -0.469813,1.340886 -1.250736,2.738316 -1.801435,3.223378 L 64.39299,86.6468 63.041391,85.802221 C 62.085388,85.205004 61.222488,84.108341 60.097139,82.058885 54.087195,71.113537 50.779536,69.028581 39.104994,68.830584 28.578479,68.652097 28.970773,68.886553 32.822357,65.086554 45.442343,52.636311 53.063855,48.3932 63.860455,47.808454 Z M 28.97761,74.54595 l 2.719365,0.237725 c 3.316188,0.289958 3.197064,0.229019 3.500261,1.798941 1.326506,6.868328 7.49549,11.07189 16.752719,11.414585 l 5.721509,0.211413 0.187682,1.896582 c 0.181304,1.832222 0.232203,1.906997 1.500308,2.195625 l 1.312831,0.298359 v 7.201797 7.201123 l -1.125295,-0.0415 c -0.618837,-0.0235 -2.098085,-0.1733 -3.287083,-0.33334 C 42.404551,104.76209 28.97778,89.820111 28.97778,76.265997 Z m 13.434849,0.04162 c 1.721983,0 4.825531,0.987527 6.028458,1.918104 1.036634,0.802003 4.541986,5.024644 4.541986,5.471569 0,0.299383 -4.543448,0.177152 -5.744185,-0.154324 -3.634234,-1.002845 -7.791625,-7.23543 -4.826259,-7.23543 z m 53.389163,0 h 3.046043 l -0.192769,3.879359 C 97.974949,92.158853 84.004593,105.41704 68.708442,106.88688 l -2.340589,0.2249 0.242382,-1.34836 c 0.133276,-0.74131 0.243969,-4.10198 0.246193,-7.468468 l 0.0064,-6.120803 h 2.062936 2.062963 v -1.85957 c 0,-2.142838 0.186071,-2.278443 3.134688,-2.278443 11.251265,0 16.217858,-3.37278 18.406886,-12.500251 0.225211,-0.939486 0.255738,-0.948289 3.273194,-0.948289 z m -10.218766,0.06339 1.124493,0.109043 -0.90619,2.069004 c -1.046053,2.387265 -3.139396,4.326821 -5.315658,4.925344 -2.137497,0.587902 -5.747815,0.918145 -5.747815,0.526026 0,-2.702193 7.469631,-7.957016 10.84517,-7.629486 z"
       style="fill:#f9f9f9;fill-opacity:1;stroke-width:0.359639"
       id="path1-2"
       sodipodi:nodetypes="cccsssccscccsssccscccccccsscccssscsssscccsccscsccccccccccscssscsccscccccccsscscccccssc" />
    <path
       d="m 54.054995,16.675458 c -0.279008,-0.318031 -0.616114,-0.47704 -1.010988,-0.47704 -0.394858,0 -0.732937,0.160576 -1.014901,0.481505 -0.278033,0.316539 -0.419016,0.701456 -0.419016,1.151027 0,0.449536 0.140919,0.834839 0.419016,1.151009 l 4.386599,4.994176 -4.382685,4.989734 c -0.281947,0.320999 -0.42293,0.705917 -0.426846,1.15547 0.0047,0.449555 0.145006,0.834837 0.422932,1.151026 0.281964,0.316543 0.620043,0.477043 1.010982,0.481505 0.398793,0 0.737203,-0.160573 1.019151,-0.481505 l 4.873828,-5.553343 c 1.023066,-1.16032 1.023066,-2.325084 0,-3.490215 z M 73.160337,28.974771 C 72.87837,28.653772 72.536045,28.493273 72.137272,28.493273 v -0.0017 h -9.40956 v 0.0017 c -0.398803,0 -0.737544,0.160574 -1.019163,0.481498 -0.281966,0.32102 -0.422931,0.706289 -0.422931,1.160322 0,0.454013 0.140919,0.843762 0.422931,1.164763 0.281965,0.321001 0.620043,0.481502 1.019163,0.481502 v -0.0017 h 9.409214 v 0.0017 c 0.398788,0 0.740784,-0.160575 1.023063,-0.481502 0.281965,-0.321001 0.422933,-0.71075 0.422933,-1.164763 0,-0.454033 -0.140919,-0.839302 -0.422933,-1.160322 z"
       fill="#ffffff"
       id="path1-9"
       style="fill:#f9f9f9;stroke-width:0.348203" />
    <path
       style="fill:#00ffff;stroke-width:0.176777"
       d=""
       id="path126" />
    <path
       style="fill:#00ffff;stroke-width:0.176777"
       d=""
       id="path127" />
    <path
       style="fill:#00ffff;stroke-width:0.176777"
       d=""
       id="path1" />
    <path
       style="fill:#00ffff;stroke-width:0.176777"
       d="m 52.654176,31.556129 c -0.798343,-0.322172 -1.173041,-1.370122 -0.763502,-2.135353 0.100919,-0.188569 1.174838,-1.468585 2.386485,-2.844479 1.211648,-1.375895 2.202157,-2.548835 2.201133,-2.606535 -0.001,-0.0577 -0.921647,-1.139052 -2.045827,-2.403005 -2.350595,-2.642853 -2.723708,-3.170477 -2.72462,-3.852928 -8.85e-4,-0.661647 0.714714,-1.361985 1.391664,-1.361985 0.458518,0 0.876571,0.400615 3.322599,3.183999 1.538947,1.7512 2.904879,3.439211 3.035406,3.751136 0.415163,0.992138 0.07697,1.572646 -2.882071,4.947069 -2.350048,2.679942 -3.211594,3.541376 -3.486618,3.486164 -0.0307,-0.0062 -0.226291,-0.08 -0.434649,-0.164083 z"
       id="path2" />
    <path
       style="fill:#99ff55;stroke-width:0.176777"
       d="m 62.225397,31.517903 c -0.561989,-0.3223 -0.784251,-0.712686 -0.784251,-1.377476 0,-0.681836 0.230754,-1.073196 0.816824,-1.385339 0.539766,-0.287481 9.824913,-0.287481 10.36468,0 0.58607,0.312143 0.816823,0.703503 0.816823,1.385339 0,0.681836 -0.230753,1.073196 -0.816823,1.385338 -0.534893,0.284886 -9.899141,0.277805 -10.397253,-0.0079 z"
       id="path3" />
  </g>
</svg>
